<svg xmlns="http://www.w3.org/2000/svg" viewBox="0 0 1680 950" width="100%" role="img" aria-labelledby="bannerTitle">
<title id="bannerTitle">Vigneshwaran S — Full Stack &amp; AI/ML Developer</title>

<defs>
  <pattern id="gridPattern" width="40" height="40" patternUnits="userSpaceOnUse">
    <path d="M40 0H0V40" fill="none" stroke="#ECECEF" stroke-width="1"/>
  </pattern>
  <pattern id="hazardPattern" width="10" height="10" patternUnits="userSpaceOnUse" patternTransform="rotate(45)">
    <rect width="10" height="10" fill="#FAFAFA"/>
    <rect width="4" height="10" fill="#111111"/>
  </pattern>
  <pattern id="darkGrid" width="34" height="34" patternUnits="userSpaceOnUse">
    <path d="M34 0H0V34" fill="none" stroke="rgba(255,255,255,0.06)" stroke-width="1"/>
  </pattern>
  <radialGradient id="blobGlow" cx="55%" cy="45%" r="60%">
    <stop offset="0%" stop-color="#2563EB" stop-opacity="0.42"/>
    <stop offset="70%" stop-color="#2563EB" stop-opacity="0"/>
  </radialGradient>
  <linearGradient id="blobFill" x1="0%" y1="0%" x2="100%" y2="100%">
    <stop offset="0%" stop-color="#161616"/>
    <stop offset="55%" stop-color="#141414"/>
    <stop offset="100%" stop-color="#050505"/>
  </linearGradient>
  <linearGradient id="scanGrad" x1="0" y1="0" x2="1" y2="0">
    <stop offset="0%" stop-color="#60A5FA" stop-opacity="0"/>
    <stop offset="50%" stop-color="#60A5FA" stop-opacity="0.9"/>
    <stop offset="100%" stop-color="#60A5FA" stop-opacity="0"/>
  </linearGradient>
  <linearGradient id="beamGrad" x1="0" y1="0" x2="1" y2="0">
    <stop offset="0%" stop-color="#2563EB" stop-opacity="0"/>
    <stop offset="50%" stop-color="#60A5FA" stop-opacity="0.18"/>
    <stop offset="100%" stop-color="#2563EB" stop-opacity="0"/>
  </linearGradient>
  <linearGradient id="vScanGrad" x1="0" y1="0" x2="1" y2="0">
    <stop offset="0%" stop-color="#2563EB" stop-opacity="0"/>
    <stop offset="50%" stop-color="#2563EB" stop-opacity="1"/>
    <stop offset="100%" stop-color="#2563EB" stop-opacity="0"/>
  </linearGradient>
  <radialGradient id="dotGlow" cx="50%" cy="50%" r="50%">
    <stop offset="0%" stop-color="#60A5FA" stop-opacity="1"/>
    <stop offset="70%" stop-color="#2563EB" stop-opacity="0"/>
  </radialGradient>
  <clipPath id="blobClip">
    <path d="M260,4 C372,4 516,58 516,214 C516,336 452,476 258,476 C104,476 4,378 4,218 C4,82 132,4 260,4 Z"/>
  </clipPath>

  <pattern id="darkGridFine" width="12" height="12" patternUnits="userSpaceOnUse">
    <path d="M12 0H0V12" fill="none" stroke="rgba(255,255,255,0.03)" stroke-width="1"/>
  </pattern>

  <filter id="softBlur30" x="-60%" y="-60%" width="220%" height="220%">
    <feGaussianBlur stdDeviation="30"/>
  </filter>
  <filter id="softBlur6" x="-150%" y="-150%" width="400%" height="400%">
    <feGaussianBlur stdDeviation="2.4"/>
  </filter>
  <filter id="noiseTex" x="0" y="0" width="100%" height="100%">
    <feTurbulence type="fractalNoise" baseFrequency="0.85" numOctaves="2" stitchTiles="stitch" result="n"/>
    <feColorMatrix in="n" type="matrix" values="0 0 0 0 1  0 0 0 0 1  0 0 0 0 1  0 0 0 0.05 0"/>
  </filter>

  <radialGradient id="vignetteGrad" cx="50%" cy="46%" r="62%">
    <stop offset="0%" stop-color="#000000" stop-opacity="0"/>
    <stop offset="62%" stop-color="#000000" stop-opacity="0"/>
    <stop offset="100%" stop-color="#000000" stop-opacity="1"/>
  </radialGradient>
  <mask id="vignetteMask">
    <rect x="0" y="0" width="520" height="480" fill="url(#vignetteGrad)"/>
  </mask>
</defs>

<style>
<![CDATA[
  text{ font-family: Arial, Helvetica, sans-serif; }
  .mono{ font-family: "Courier New", Consolas, monospace; }

  @keyframes gridFade{ 0%,100%{ opacity:.55; } 50%{ opacity:.22; } }
  .bp-grid{ animation: gridFade 9s ease-in-out infinite; }

  @keyframes dotPulseOp{ 0%,100%{ opacity:.55; } 50%{ opacity:1; } }
  .pulse-dot{ animation: dotPulseOp 2.4s ease-in-out infinite; }

  @keyframes nodePulse{ 0%,100%{ opacity:.5; r:2.2px; } 50%{ opacity:1; r:3.4px; } }
  .hud-node{ fill:#60A5FA; animation: nodePulse 3s ease-in-out infinite; }

  @keyframes spin{ to{ transform: rotate(360deg); } }
  @keyframes spinRev{ from{ transform: rotate(360deg); } to{ transform: rotate(0deg); } }
  .spin-rings{ transform-box: fill-box; transform-origin: center; animation: spin 60s linear infinite; }
  .spin-globe{ transform-box: fill-box; transform-origin: center; animation: spin 90s linear infinite; }
  .spin-radar{ transform-box: fill-box; transform-origin: center; animation: spin 16s linear infinite; }
  .spin-dashed{ transform-box: fill-box; transform-origin: center; animation: spinRev 50s linear infinite; }
  .spin-deco{ transform-box: fill-box; transform-origin: center; animation: spinRev 70s linear infinite; }
  .spin-mark{ transform-box: fill-box; transform-origin: center; animation: spin 14s linear infinite; }

  @keyframes floaty{ 0%,100%{ transform: translateY(0); } 50%{ transform: translateY(-6px); } }
  .float{ animation: floaty 5s ease-in-out infinite; transform-box: fill-box; transform-origin: center; }

  @keyframes hexFloat{ 0%,100%{ transform: translateY(0) rotate(0deg); } 50%{ transform: translateY(-6px) rotate(4deg); } }
  .hex-float{ transform-box: fill-box; transform-origin: center; animation: hexFloat 7s ease-in-out infinite; }

  @keyframes plusFloat{ 0%,100%{ transform: translateY(0); opacity:.35; } 50%{ transform: translateY(-5px); opacity:.8; } }
  .plus-sym{ animation: plusFloat 6s ease-in-out infinite; }

  @keyframes blink{ 50%{ opacity:0; } }
  .cursor{ animation: blink 1s steps(1) infinite; }

  @keyframes flow{ 0%,100%{ x:677px; width:142px; } 50%{ x:734px; width:185px; } }
  .flow-fill{ animation: flow 5s ease-in-out infinite; }

  @keyframes vScan{ 0%{ transform: translateX(-68px); } 100%{ transform: translateX(170px); } }
  .v-scan{ animation: vScan 4s linear infinite; }

  @keyframes blobScan{ 0%{ transform: translateX(-182px); opacity:0; } 10%{ opacity:1; } 90%{ opacity:1; } 100%{ transform: translateX(660px); opacity:0; } }
  .scan-line{ animation: blobScan 9s linear infinite; }
  .scan-line-2{ animation: blobScan 11s linear infinite; animation-delay:3.5s; }

  @keyframes beamSweep{ 0%{ transform: translateX(-130px); } 45%{ transform: translateX(572px); } 100%{ transform: translateX(572px); } }
  .beam{ animation: beamSweep 8s ease-in-out infinite; }

  @keyframes megaMove{ 0%{ transform: translateX(-168px); } 100%{ transform: translateX(1848px); } }
  .megascan{ animation: megaMove 8s linear infinite; }

  @keyframes glowPulse{ 0%,100%{ opacity:.55; transform: scale(1); } 50%{ opacity:.9; transform: scale(1.045); } }
  .blob-glow{ transform-box: fill-box; transform-origin: center; animation: glowPulse 6s ease-in-out infinite; }

  @keyframes bdotFloat{ 0%,100%{ transform: translate(0,0); } 50%{ transform: translate(6px,-8px); } }
  .bdot{ animation: bdotFloat 5s ease-in-out infinite alternate, dotPulseOp 2.8s ease-in-out infinite; }

  @keyframes wave{ 0%,100%{ transform: scaleY(.3); } 50%{ transform: scaleY(1); } }
  .wbar{ transform-box: fill-box; transform-origin: bottom; animation: wave 1.6s ease-in-out infinite; }

  @keyframes particleFloat{ 0%,100%{ transform: translate(0,0); } 50%{ transform: translate(8px,-10px); } }
  .particle{ animation: particleFloat 7s ease-in-out infinite; }

  @keyframes fadeUp{ 0%{ opacity:0; transform: translateY(10px); } 100%{ opacity:1; transform: translateY(0); } }
  .fade-up{ animation: fadeUp .9s ease forwards; }

  @keyframes stepDot{ 0%,100%{ opacity:.6; } 50%{ opacity:1; } }
  .step-dot{ animation: stepDot 2.6s ease-in-out infinite; }

  @media (prefers-reduced-motion: reduce){
    *{ animation-duration: 0.001s !important; animation-iteration-count: 1 !important; }
  }
]]>
</style>

<!-- background -->
<rect x="0" y="0" width="1680" height="950" fill="#FAFAFA"/>
<rect x="0" y="0" width="1680" height="950" fill="url(#gridPattern)" class="bp-grid"/>

<!-- faint full-width scanning line -->
<rect class="megascan" x="0" y="0" width="100" height="950" fill="#2563EB" opacity="0.06"/>

<!-- hazard block top-right -->
<rect x="1556" y="8" width="110" height="56" fill="url(#hazardPattern)"/>

<!-- deco circle + cross top-left -->
<circle class="spin-deco" cx="125" cy="215" r="65" fill="none" stroke="#dddddd" stroke-width="1" stroke-dasharray="4 4"/>
<g stroke="#cccccc" stroke-width="1">
  <line x1="250" y1="175" x2="310" y2="175"/>
  <line x1="280" y1="145" x2="280" y2="205"/>
</g>

<!-- dot grid icon top-left -->
<g>
  <circle cx="39" cy="41" r="3" fill="#0A0A0A"/>
  <circle cx="54" cy="41" r="3" fill="#0A0A0A"/>
  <circle cx="69" cy="41" r="3" fill="#2563EB"/>
  <circle cx="39" cy="56" r="3" fill="#0A0A0A"/>
  <circle cx="54" cy="56" r="3" fill="#0A0A0A"/>
  <circle cx="69" cy="56" r="3" fill="#2563EB"/>
  <circle cx="39" cy="71" r="3" fill="#0A0A0A"/>
  <circle cx="54" cy="71" r="3" fill="#0A0A0A"/>
  <circle cx="69" cy="71" r="3" fill="#2563EB"/>
</g>

<!-- prompt + developer mode -->
<text class="mono" x="34" y="312" font-size="26" font-weight="700" fill="#0A0A0A">&gt;_</text>
<text class="mono" x="34" y="336" font-size="12" letter-spacing="0.5" fill="#555555">DEVELOPER MODE: <tspan font-weight="700" fill="#2563EB">ON</tspan></text>

<!-- steps -->
<line x1="39" y1="392" x2="39" y2="508" stroke="#E3E3E6" stroke-width="1"/>
<g class="mono" font-size="14" letter-spacing="1" fill="#0A0A0A">
  <circle class="step-dot" cx="39" cy="396" r="3.5" fill="#2563EB"/>
  <text x="56" y="401">DEVELOP</text>
  <circle class="step-dot" cx="39" cy="435" r="3.5" fill="#2563EB" style="animation-delay:.4s"/>
  <text x="56" y="440">BUILD</text>
  <circle class="step-dot" cx="39" cy="474" r="3.5" fill="#2563EB" style="animation-delay:.7s"/>
  <text x="56" y="479">DEPLOY</text>
  <circle class="step-dot" cx="39" cy="513" r="3.5" fill="#2563EB" style="animation-delay:1s"/>
  <text x="56" y="518">REPEAT</text>
</g>

<!-- sys.loc box -->
<rect x="8" y="896" width="248" height="34" fill="rgba(255,255,255,0.6)" stroke="#E3E3E6" stroke-width="1"/>
<circle class="pulse-dot" cx="24" cy="913" r="3.5" fill="#2563EB"/>
<text class="mono" x="36" y="917" font-size="12" fill="#333333">SYS.LOC: 12.9716&#176; N, 79.1588&#176; E</text>

<!-- version row -->
<g>
  <rect x="590" y="117.5" width="6" height="6" fill="none" stroke="#bbbbbb" stroke-width="1" transform="rotate(45 593 120.5)"/>
  <rect x="610" y="118" width="170" height="1" fill="#E3E3E6"/>
  <rect class="v-scan" x="610" y="118" width="68" height="1" fill="url(#vScanGrad)"/>
  <text class="mono" x="840" y="123" font-size="12" letter-spacing="2" fill="#999999" text-anchor="middle">VERSION 1.0.0</text>
  <rect x="900" y="118" width="170" height="1" fill="#E3E3E6"/>
  <rect class="v-scan" x="900" y="118" width="68" height="1" fill="url(#vScanGrad)"/>
  <rect x="1074" y="117.5" width="6" height="6" fill="none" stroke="#bbbbbb" stroke-width="1" transform="rotate(45 1077 120.5)"/>
</g>

<!-- online -->
<circle class="pulse-dot" cx="1500" cy="67" r="3.5" fill="#2563EB"/>
<text class="mono" x="1512" y="71" font-size="12" letter-spacing="2" fill="#333333">ONLINE</text>

<!-- rings top right -->
<g class="spin-rings">
  <circle cx="1455" cy="145" r="72" fill="none" stroke="#dddddd" stroke-width="1"/>
  <circle cx="1455" cy="145" r="45" fill="none" stroke="#e5e5e5" stroke-width="1"/>
  <circle cx="1455" cy="145" r="4" fill="#2563EB"/>
</g>

<!-- hero -->
<text x="840" y="222" text-anchor="middle" font-size="26" font-weight="500" letter-spacing="3" fill="#6B7280">Hello, I'm</text>
<text x="840" y="340" text-anchor="middle" font-size="96" font-weight="800" letter-spacing="5" fill="#0A0A0A">VIGNESHWARAN S</text>
<line x1="720" y1="400" x2="960" y2="400" stroke="#E3E3E6" stroke-width="1"/>
<circle class="pulse-dot" cx="840" cy="400" r="3.5" fill="#2563EB"/>

<g class="fade-up" style="animation-delay:1s">
  <g class="float">
    <rect x="770" y="404" width="44" height="44" rx="11" fill="#0A0A0A"/>
    <path transform="translate(783,417) scale(1.15)" fill="#ffffff" d="M8 0C3.58 0 0 3.58 0 8c0 3.54 2.29 6.53 5.47 7.59.4.07.55-.17.55-.38 0-.19-.01-.82-.01-1.49-2.01.37-2.53-.49-2.69-.94-.09-.23-.48-.94-.82-1.13-.28-.15-.68-.52-.01-.53.63-.01 1.08.58 1.23.82.72 1.21 1.87.87 2.33.66.07-.52.28-.87.51-1.07-1.78-.2-3.64-.89-3.64-3.95 0-.87.31-1.59.82-2.15-.08-.2-.36-1.02.08-2.12 0 0 .67-.21 2.2.82.64-.18 1.32-.27 2-.27.68 0 1.36.09 2 .27 1.53-1.04 2.2-.82 2.2-.82.44 1.1.16 1.92.08 2.12.51.56.82 1.27.82 2.15 0 3.07-1.87 3.75-3.65 3.95.29.25.54.73.54 1.48 0 1.07-.01 1.93-.01 2.2 0 .21.15.46.55.38A8.01 8.01 0 0 0 16 8c0-4.42-3.58-8-8-8z"/>
  </g>
  <text class="mono" x="826" y="426" font-size="24" letter-spacing="0.5" fill="#0A0A0A">github.com/<tspan fill="#2563EB">Vikki-2006</tspan></text>
  <line x1="826" y1="436" x2="1046" y2="436" stroke="#2563EB" stroke-width="2"/>
</g>

<!-- progress -->
<g class="fade-up" style="animation-delay:1.2s">
  <text class="mono" x="478" y="562" font-size="12" letter-spacing="1" fill="#666666">DEV:24.7%</text>
  <text class="mono" x="1190" y="562" font-size="12" letter-spacing="1" fill="#666666" text-anchor="end">EXP: &#8734;%</text>
  <rect x="478" y="590" width="712" height="1" fill="#E3E3E6"/>
  <rect class="flow-fill" y="590" height="1" fill="#2563EB"/>
  <g class="spin-mark">
    <circle cx="834" cy="590" r="8" fill="none" stroke="#2563EB" stroke-width="1" stroke-dasharray="2 3"/>
  </g>
  <circle cx="834" cy="590" r="2.5" fill="#2563EB"/>
  <rect x="478" y="626" width="712" height="1" fill="#E3E3E6"/>
  <rect x="478" y="626" width="228" height="1" fill="#2563EB"/>
  <rect x="1100" y="620" width="90" height="14" fill="url(#hazardPattern)"/>
</g>

<!-- globe wireframe bottom-left -->
<g class="spin-globe" transform="translate(-90,520) scale(1.1333)">
  <circle cx="150" cy="150" r="120" fill="none" stroke="#dddddd" stroke-width="1"/>
  <ellipse cx="150" cy="150" rx="120" ry="40" fill="none" stroke="#e2e2e2" stroke-width="1"/>
  <ellipse cx="150" cy="150" rx="120" ry="80" fill="none" stroke="#e2e2e2" stroke-width="1"/>
  <ellipse cx="150" cy="150" rx="40" ry="120" fill="none" stroke="#e2e2e2" stroke-width="1"/>
  <ellipse cx="150" cy="150" rx="80" ry="120" fill="none" stroke="#e2e2e2" stroke-width="1"/>
  <line x1="30" y1="150" x2="270" y2="150" stroke="#e2e2e2" stroke-width="1"/>
  <line x1="150" y1="30" x2="150" y2="270" stroke="#e2e2e2" stroke-width="1"/>
</g>

<!-- ===== black HUD panel bottom-right ===== -->
<g>
  <ellipse class="blob-glow" cx="1450" cy="740" rx="300" ry="280" fill="url(#blobGlow)" filter="url(#softBlur30)"/>

  <!-- corner fill so the panel blends seamlessly into the canvas edge -->
  <rect x="1560" y="860" width="120" height="90" fill="url(#blobFill)"/>

  <g transform="translate(1226,536)">
    <path d="M260,4 C372,4 516,58 516,214 C516,336 452,476 258,476 C104,476 4,378 4,218 C4,82 132,4 260,4 Z" fill="url(#blobFill)"/>
    <g clip-path="url(#blobClip)">
      <rect x="0" y="0" width="520" height="480" fill="url(#darkGrid)" class="bp-grid"/>
      <rect x="0" y="0" width="520" height="480" fill="url(#darkGridFine)"/>
      <rect x="0" y="0" width="520" height="480" filter="url(#noiseTex)" opacity="0.5"/>

      <!-- glowing floating dots -->
      <circle class="bdot" cx="60" cy="70" r="3" fill="url(#dotGlow)"/>
      <circle class="bdot" cx="140" cy="40" r="2.4" fill="url(#dotGlow)" style="animation-delay:.6s,.2s"/>
      <circle class="bdot" cx="330" cy="90" r="2.8" fill="url(#dotGlow)" style="animation-delay:1.1s,.5s"/>
      <circle class="bdot" cx="410" cy="180" r="2.2" fill="url(#dotGlow)" style="animation-delay:1.6s,.8s"/>
      <circle class="bdot" cx="480" cy="300" r="3.2" fill="url(#dotGlow)" style="animation-delay:2s,1.1s"/>
      <circle class="bdot" cx="380" cy="400" r="2.6" fill="url(#dotGlow)" style="animation-delay:.3s,1.4s"/>
      <circle class="bdot" cx="220" cy="430" r="2.4" fill="url(#dotGlow)" style="animation-delay:2.4s,1.7s"/>
      <circle class="bdot" cx="90" cy="360" r="2.8" fill="url(#dotGlow)" style="animation-delay:1.3s,.4s"/>
      <circle class="bdot" cx="40" cy="230" r="2.2" fill="url(#dotGlow)" style="animation-delay:.8s,1.9s"/>
      <circle class="bdot" cx="270" cy="250" r="2.6" fill="url(#dotGlow)" style="animation-delay:1.9s,.9s"/>

      <!-- scan lines -->
      <rect class="scan-line" x="0" y="106" width="182" height="1" fill="url(#scanGrad)"/>
      <rect class="scan-line-2" x="0" y="326" width="182" height="1" fill="url(#scanGrad)"/>

      <!-- sweeping beam -->
      <rect class="beam" x="0" y="0" width="83" height="480" fill="url(#beamGrad)"/>
    </g>

    <!-- HUD line-art (own 520x480 coordinate space) -->
    <g stroke="rgba(148,163,184,.4)" stroke-width="1.2" fill="none">
      <path d="M28 24 L28 40 M28 24 L44 24"/>
      <path d="M492 24 L492 40 M492 24 L476 24"/>
      <path d="M28 456 L28 440 M28 456 L44 456"/>
      <path d="M492 456 L492 440 M492 456 L476 456"/>
    </g>

    <!-- radar -->
    <g class="spin-radar" style="transform-origin:112px 96px">
      <circle cx="112" cy="96" r="46" fill="none" stroke="rgba(96,165,250,.28)" stroke-width="1"/>
      <circle cx="112" cy="96" r="30" fill="none" stroke="rgba(96,165,250,.22)" stroke-width="1" stroke-dasharray="2 5"/>
      <circle cx="112" cy="96" r="16" fill="none" stroke="rgba(96,165,250,.22)" stroke-width="1" stroke-dasharray="2 5"/>
      <line x1="112" y1="96" x2="112" y2="50" stroke="rgba(96,165,250,.55)" stroke-width="1.4"/>
    </g>
    <circle cx="112" cy="96" r="2.4" class="hud-node"/>

    <!-- dashed circle -->
    <circle class="spin-dashed" cx="430" cy="330" r="70" fill="none" stroke="rgba(255,255,255,.15)" stroke-width="1" stroke-dasharray="2 6"/>

    <!-- hexagon wireframe -->
    <g class="hex-float" transform="translate(420,74)">
      <polygon points="0,-22 19,-11 19,11 0,22 -19,11 -19,-11" fill="none" stroke="rgba(148,163,184,.4)" stroke-width="1"/>
      <polygon points="0,-12 10,-6 10,6 0,12 -10,6 -10,-6" fill="none" stroke="rgba(96,165,250,.3)" stroke-width="1"/>
    </g>

    <!-- circuit traces -->
    <path d="M60 210 L150 195 L150 240 L210 250" fill="none" stroke="rgba(96,165,250,.35)" stroke-width="1" stroke-dasharray="3 4"/>
    <circle cx="60" cy="210" r="2.4" class="hud-node" style="animation-delay:.3s"/>
    <circle cx="150" cy="195" r="2.4" class="hud-node" style="animation-delay:1.1s"/>
    <circle cx="150" cy="240" r="2.4" class="hud-node" style="animation-delay:1.9s"/>
    <circle cx="210" cy="250" r="2.4" class="hud-node" style="animation-delay:.7s"/>

    <path d="M470 130 L470 200 L440 200" fill="none" stroke="rgba(255,255,255,.12)" stroke-width="1"/>
    <circle cx="470" cy="130" r="2" class="hud-node" style="animation-delay:.5s"/>
    <circle cx="440" cy="200" r="2" class="hud-node" style="animation-delay:1.6s"/>

    <!-- measurement lines -->
    <line x1="60" y1="410" x2="220" y2="410" stroke="rgba(255,255,255,.12)" stroke-width="1"/>
    <line x1="60" y1="405" x2="60" y2="415" stroke="rgba(255,255,255,.12)" stroke-width="1"/>
    <line x1="220" y1="405" x2="220" y2="415" stroke="rgba(255,255,255,.12)" stroke-width="1"/>

    <!-- crosshairs -->
    <g stroke="rgba(148,163,184,.5)" stroke-width="1" fill="none">
      <line x1="470" y1="240" x2="470" y2="252"/>
      <line x1="464" y1="246" x2="476" y2="246"/>
      <circle cx="470" cy="246" r="6"/>
    </g>
    <g stroke="rgba(148,163,184,.4)" stroke-width="1" fill="none">
      <line x1="40" y1="130" x2="40" y2="142"/>
      <line x1="34" y1="136" x2="46" y2="136"/>
    </g>

    <!-- blueprint arrow -->
    <path d="M250 60 L285 60 M278 54 L285 60 L278 66" fill="none" stroke="rgba(255,255,255,.12)" stroke-width="1"/>

    <!-- coordinate labels -->
    <text class="mono" x="20" y="16" font-size="9" letter-spacing="0.5" fill="rgba(148,163,184,.65)">X:428.5&#160;&#160;Y:190.2</text>
    <text class="mono" x="330" y="472" font-size="9" letter-spacing="0.5" fill="rgba(148,163,184,.65)">LAT 12.97&#176;&#160;&#160;LON 79.15&#176;</text>
    <text class="mono" x="24" y="470" font-size="9" letter-spacing="0.5" fill="rgba(148,163,184,.65)">NODE//0x4F2A</text>

    <!-- inner vignette for depth (native SVG mask) -->
    <g clip-path="url(#blobClip)">
      <rect x="0" y="0" width="520" height="480" fill="#000000" mask="url(#vignetteMask)"/>
    </g>
  </g>

  <!-- plus symbols -->
  <text class="plus-sym mono" x="1310" y="545" font-size="12" fill="rgba(96,165,250,.4)" style="animation-delay:.4s">+</text>
  <text class="plus-sym mono" x="1100" y="750" font-size="12" fill="rgba(96,165,250,.4)" style="animation-delay:1.6s">+</text>
  <text class="plus-sym mono" x="1520" y="710" font-size="12" fill="rgba(96,165,250,.4)" style="animation-delay:.9s">+</text>

  <!-- small transparent HUD card -->
  <g>
    <rect x="1544" y="446" width="112" height="58" rx="10" fill="rgba(255,255,255,0.04)" stroke="rgba(255,255,255,0.14)" stroke-width="1"/>
    <circle class="pulse-dot" cx="1554" cy="460" r="2.5" fill="#2563EB"/>
    <text class="mono" x="1562" y="463" font-size="9" letter-spacing="1" fill="#9CA3AF">SYS &#160;ACTIVE</text>
    <text class="mono" x="1554" y="480" font-size="9" letter-spacing="1" fill="#9CA3AF">CPU &#160;24%</text>
    <text class="mono" x="1554" y="496" font-size="9" letter-spacing="1" fill="#9CA3AF">NET &#160;OK</text>
  </g>

  <!-- code editor card: moved into the black HUD section, ~20% smaller -->
  <g transform="translate(1258,530) scale(0.8)">
  <g class="float" style="animation-duration:6s">
    <rect x="52" y="150" width="392" height="224" rx="14" fill="rgba(20,20,22,0.9)" stroke="rgba(255,255,255,0.08)" stroke-width="1"/>
    <rect x="52" y="150" width="392" height="38" rx="14" fill="rgba(255,255,255,0.03)"/>
    <rect x="52" y="176" width="392" height="12" fill="rgba(255,255,255,0.03)"/>
    <line x1="52" y1="188" x2="444" y2="188" stroke="rgba(255,255,255,0.07)" stroke-width="1"/>
    <circle cx="72" cy="169" r="4.5" fill="#FF5F57"/>
    <circle cx="88" cy="169" r="4.5" fill="#FEBC2E"/>
    <circle cx="104" cy="169" r="4.5" fill="#28C840"/>
    <circle cx="128" cy="169" r="3" fill="#60A5FA"/>
    <text class="mono" x="138" y="173" font-size="11" fill="#9CA3AF">developer.ts</text>

    <rect x="66" y="199" width="368" height="26" fill="rgba(96,165,250,0.07)"/>
    <rect x="66" y="199" width="2" height="26" fill="rgba(96,165,250,0.6)"/>

    <g class="mono" font-size="13" fill="#D1D5DB">
      <text x="66" y="216"><tspan fill="#4B5563">01</tspan>&#160;&#160;<tspan fill="#60A5FA">const</tspan> <tspan fill="#F3F4F6" font-weight="700">developer</tspan> = {</text>
      <text x="66" y="241"><tspan fill="#4B5563">02</tspan>&#160;&#160;&#160;&#160;focus: [<tspan fill="#6EE7B7">'Full Stack'</tspan>, <tspan fill="#6EE7B7">'AI'</tspan>],</text>
      <text x="66" y="266"><tspan fill="#4B5563">03</tspan>&#160;&#160;&#160;&#160;stack: [<tspan fill="#6EE7B7">'Python'</tspan>, <tspan fill="#6EE7B7">'React'</tspan>, <tspan fill="#6EE7B7">'FastAPI'</tspan>],</text>
      <text x="66" y="291"><tspan fill="#4B5563">04</tspan>&#160;&#160;&#160;&#160;mindset: <tspan fill="#6EE7B7">'Continuous Learning'</tspan>,</text>
      <text x="66" y="316"><tspan fill="#4B5563">05</tspan>&#160;&#160;&#160;&#160;status: <tspan fill="#6EE7B7">'Building'</tspan></text>
      <text x="66" y="341"><tspan fill="#4B5563">06</tspan>&#160;&#160;};<tspan class="cursor" fill="#2563EB">&#9608;</tspan></text>
    </g>
    <rect x="432" y="158" width="3" height="100" rx="1.5" fill="rgba(255,255,255,0.16)"/>
  </g>
  </g>

  <!-- waveform -->
  <g fill="#60A5FA" opacity="0.55">
    <rect class="wbar" x="66" y="906" width="6" height="16" style="animation-delay:0s"/>
    <rect class="wbar" x="78" y="900" width="6" height="22" style="animation-delay:.1s"/>
    <rect class="wbar" x="90" y="908" width="6" height="14" style="animation-delay:.2s"/>
    <rect class="wbar" x="102" y="895" width="6" height="27" style="animation-delay:.3s"/>
    <rect class="wbar" x="114" y="904" width="6" height="18" style="animation-delay:.4s"/>
    <rect class="wbar" x="126" y="910" width="6" height="12" style="animation-delay:.5s"/>
    <rect class="wbar" x="138" y="897" width="6" height="25" style="animation-delay:.6s"/>
    <rect class="wbar" x="150" y="906" width="6" height="16" style="animation-delay:.7s"/>
    <rect class="wbar" x="162" y="901" width="6" height="21" style="animation-delay:.8s"/>
    <rect class="wbar" x="174" y="908" width="6" height="14" style="animation-delay:.9s"/>
  </g>

  <!-- paginate -->
  <g>
    <circle cx="55" cy="916" r="3" fill="#4B5563"/>
    <circle cx="69" cy="916" r="3" fill="#4B5563"/>
    <circle cx="83" cy="916" r="3" fill="#4B5563"/>
    <circle cx="97" cy="916" r="3" fill="#2563EB"/>
  </g>
</g>

<!-- floating particles (26, matching original count/scatter) -->
<g fill="url(#dotGlow)">
  <circle class="particle" cx="140" cy="120" r="2.6" opacity="0.55" style="animation-delay:.2s"/>
  <circle class="particle" cx="380" cy="600" r="3.2" opacity="0.7" style="animation-delay:1.1s"/>
  <circle class="particle" cx="600" cy="150" r="2.2" opacity="0.4" style="animation-delay:2s"/>
  <circle class="particle" cx="920" cy="720" r="3" opacity="0.65" style="animation-delay:.6s"/>
  <circle class="particle" cx="1200" cy="200" r="2.4" opacity="0.5" style="animation-delay:1.6s"/>
  <circle class="particle" cx="260" cy="820" r="2.8" opacity="0.6" style="animation-delay:.9s"/>
  <circle class="particle" cx="1000" cy="500" r="2" opacity="0.45" style="animation-delay:2.3s"/>
  <circle class="particle" cx="500" cy="850" r="3.4" opacity="0.75" style="animation-delay:.4s"/>
  <circle class="particle" cx="1350" cy="850" r="2.4" opacity="0.5" style="animation-delay:1.4s"/>
  <circle class="particle" cx="750" cy="80" r="2.6" opacity="0.55" style="animation-delay:1.9s"/>
  <circle class="particle" cx="200" cy="480" r="2.2" opacity="0.4" style="animation-delay:.7s"/>
  <circle class="particle" cx="1450" cy="380" r="2.8" opacity="0.6" style="animation-delay:2.5s"/>
  <circle class="particle" cx="960" cy="880" r="2" opacity="0.45" style="animation-delay:1.2s"/>
  <circle class="particle" cx="60" cy="700" r="2.6" opacity="0.55" style="animation-delay:.3s"/>
  <circle class="particle" cx="1300" cy="620" r="2.2" opacity="0.4" style="animation-delay:1.8s"/>
  <circle class="particle" cx="820" cy="440" r="3.1" opacity="0.65" style="animation-delay:2.7s"/>
  <circle class="particle" cx="1120" cy="60" r="2.3" opacity="0.5" style="animation-delay:.5s"/>
  <circle class="particle" cx="430" cy="300" r="2.7" opacity="0.6" style="animation-delay:1.3s"/>
  <circle class="particle" cx="1550" cy="150" r="2" opacity="0.4" style="animation-delay:2.1s"/>
  <circle class="particle" cx="30" cy="880" r="3" opacity="0.7" style="animation-delay:.8s"/>
  <circle class="particle" cx="1580" cy="750" r="2.5" opacity="0.55" style="animation-delay:1.7s"/>
  <circle class="particle" cx="660" cy="920" r="2.2" opacity="0.45" style="animation-delay:2.4s"/>
  <circle class="particle" cx="1080" cy="880" r="2.8" opacity="0.6" style="animation-delay:.1s"/>
  <circle class="particle" cx="1450" cy="550" r="2.3" opacity="0.5" style="animation-delay:1s"/>
  <circle class="particle" cx="300" cy="70" r="2.6" opacity="0.55" style="animation-delay:2.6s"/>
  <circle class="particle" cx="880" cy="300" r="2" opacity="0.4" style="animation-delay:.65s"/>
</g>

</svg>
