<svg width="100%" viewBox="0 0 1600 250" preserveAspectRatio="xMidYMid meet" fill="none" xmlns="http://www.w3.org/2000/svg">
  <defs>
    <pattern id="dotgrid" width="42" height="42" patternUnits="userSpaceOnUse">
      <circle cx="1" cy="1" r="1" fill="#DBEAFE" opacity="0.55"/>
    </pattern>
    <filter id="softGlow" x="-50%" y="-50%" width="200%" height="200%">
      <feGaussianBlur stdDeviation="3.5"/>
    </filter>
    <clipPath id="waveClip">
      <rect x="0" y="185" width="1600" height="65"/>
    </clipPath>
  </defs>

  <rect width="1600" height="250" fill="#FAFAFA"/>

  <!-- Technical Grid: subtle parallax drift -->
  <g>
    <rect width="1600" height="250" fill="url(#dotgrid)" opacity="1"/>
    <animateTransform attributeName="transform" type="translate"
      values="0,0; 1.5,1; 0,0; -1.5,-1; 0,0" keyTimes="0;0.25;0.5;0.75;1"
      calcMode="spline" keySplines="0.42 0 0.58 1;0.42 0 0.58 1;0.42 0 0.58 1;0.42 0 0.58 1"
      dur="22s" repeatCount="indefinite"/>
  </g>

  <!-- Blueprint Guide lines: two draw slowly left-to-right then fade, third stays static -->
  <g>
    <line x1="60" y1="22" x2="1540" y2="22" stroke="#DBEAFE" stroke-width="1"
      stroke-dasharray="1480 1480" stroke-dashoffset="1480">
      <animate attributeName="stroke-dashoffset" values="1480;1480;0;0" keyTimes="0;0.05;0.6;1" dur="9s" repeatCount="indefinite"/>
      <animate attributeName="opacity" values="0;1;1;0" keyTimes="0;0.08;0.72;1" dur="9s" repeatCount="indefinite"/>
    </line>
    <line x1="60" y1="30" x2="1540" y2="30" stroke="#DBEAFE" stroke-width="1"
      stroke-dasharray="1480 1480" stroke-dashoffset="1480">
      <animate attributeName="stroke-dashoffset" values="1480;1480;0;0" keyTimes="0;0.05;0.6;1" dur="11s" begin="1.2s" repeatCount="indefinite"/>
      <animate attributeName="opacity" values="0;1;1;0" keyTimes="0;0.08;0.72;1" dur="11s" begin="1.2s" repeatCount="indefinite"/>
    </line>
    <line x1="60" y1="38" x2="900" y2="38" stroke="#3B82F6" stroke-width="1" stroke-dasharray="6 5" opacity="0.6"/>
  </g>

  <path d="M40 20 L40 60 M40 20 L80 20" stroke="#111111" stroke-width="1.4"/>
  <line x1="40" y1="40" x2="52" y2="40" stroke="#111111" stroke-width="1"/>
  <line x1="60" y1="20" x2="60" y2="32" stroke="#111111" stroke-width="1"/>
  <text x="46" y="72" font-family="monospace" font-size="9" fill="#111111" opacity="0.4">X:0040 Y:0020</text>

  <!-- Corner Accent stripes: slow opacity pulse (30%-80%) -->
  <g stroke="#3B82F6" stroke-width="1">
    <animate attributeName="opacity" values="0.3;0.8;0.3" dur="5s" calcMode="spline" keySplines="0.42 0 0.58 1;0.42 0 0.58 1" repeatCount="indefinite"/>
    <line x1="1500" y1="55" x2="1520" y2="15"/>
    <line x1="1515" y1="55" x2="1535" y2="15"/>
    <line x1="1530" y1="55" x2="1550" y2="15"/>
    <line x1="1545" y1="55" x2="1565" y2="15"/>
  </g>
  <path d="M1560 20 L1560 60 M1560 20 L1520 20" stroke="#111111" stroke-width="1.4"/>
  <text x="1470" y="72" font-family="monospace" font-size="9" fill="#111111" opacity="0.4">REV 2026.07</text>

  <!-- HUD Crosshair (left): static ring, with slow radar pulse -->
  <g transform="translate(150,95)">
    <g stroke="#3B82F6" stroke-width="1" fill="none" opacity="0.7">
      <circle cx="0" cy="0" r="7"/>
      <line x1="0" y1="-12" x2="0" y2="-6"/>
      <line x1="0" y1="6" x2="0" y2="12"/>
      <line x1="-12" y1="0" x2="-6" y2="0"/>
      <line x1="6" y1="0" x2="12" y2="0"/>
    </g>
    <circle cx="0" cy="0" r="7" stroke="#3B82F6" stroke-width="0.75" fill="none" opacity="0">
      <animate attributeName="r" values="7;34" dur="6s" repeatCount="indefinite"/>
      <animate attributeName="opacity" values="0.45;0" dur="6s" repeatCount="indefinite"/>
    </circle>
  </g>

  <!-- HUD Crosshair (right): static ring, with slow radar pulse -->
  <g transform="translate(1430,105)">
    <g stroke="#60A5FA" stroke-width="1" fill="none" opacity="0.7">
      <circle cx="0" cy="0" r="7"/>
      <line x1="0" y1="-12" x2="0" y2="-6"/>
      <line x1="0" y1="6" x2="0" y2="12"/>
      <line x1="-12" y1="0" x2="-6" y2="0"/>
      <line x1="6" y1="0" x2="12" y2="0"/>
    </g>
    <circle cx="0" cy="0" r="7" stroke="#60A5FA" stroke-width="0.75" fill="none" opacity="0">
      <animate attributeName="r" values="7;34" dur="6s" begin="3s" repeatCount="indefinite"/>
      <animate attributeName="opacity" values="0.45;0" dur="6s" begin="3s" repeatCount="indefinite"/>
    </circle>
  </g>

  <!-- Blueprint Nodes: static, with tiny staggered blink indicators -->
  <g transform="translate(300,60)">
    <circle cx="0" cy="0" r="2" fill="#111111" opacity="0.5"/>
  </g>
  <g transform="translate(1310,60)">
    <circle cx="0" cy="0" r="2" fill="#111111" opacity="0.5"/>
  </g>
  <g transform="translate(800,38)">
    <circle cx="0" cy="0" r="3" fill="#60A5FA"/>
    <animate attributeName="opacity" values="1;0.4;1" dur="3.6s" begin="0.4s" repeatCount="indefinite"/>
  </g>

  <g stroke="#111111" stroke-width="1" opacity="0.3">
    <line x1="200" y1="26" x2="200" y2="34"/>
    <line x1="260" y1="26" x2="260" y2="34"/>
    <line x1="1340" y1="26" x2="1340" y2="34"/>
    <line x1="1400" y1="26" x2="1400" y2="34"/>
  </g>

  <!-- Floating Blueprint Particles: static base, plus soft blinking -->
  <g>
    <circle cx="150" cy="150" r="1.4" fill="#60A5FA" opacity="0.5">
      <animate attributeName="opacity" values="0.5;0.15;0.5" dur="4.2s" begin="0.2s" repeatCount="indefinite"/>
    </circle>
    <circle cx="240" cy="185" r="1.2" fill="#3B82F6" opacity="0.45">
      <animate attributeName="opacity" values="0.45;0.1;0.45" dur="5.1s" begin="1.6s" repeatCount="indefinite"/>
    </circle>
    <circle cx="500" cy="55" r="1.5" fill="#60A5FA" opacity="0.5">
      <animate attributeName="opacity" values="0.5;0.15;0.5" dur="3.8s" begin="2.4s" repeatCount="indefinite"/>
    </circle>
    <circle cx="1110" cy="65" r="1.3" fill="#3B82F6" opacity="0.5">
      <animate attributeName="opacity" values="0.5;0.12;0.5" dur="4.7s" begin="0.9s" repeatCount="indefinite"/>
    </circle>
    <circle cx="1260" cy="170" r="1.4" fill="#60A5FA" opacity="0.45">
      <animate attributeName="opacity" values="0.45;0.1;0.45" dur="5.6s" begin="3.1s" repeatCount="indefinite"/>
    </circle>
    <circle cx="1480" cy="150" r="1.2" fill="#3B82F6" opacity="0.5">
      <animate attributeName="opacity" values="0.5;0.15;0.5" dur="4.4s" begin="1.1s" repeatCount="indefinite"/>
    </circle>
  </g>

  <!-- Tiny blueprint digital particle dots: fade in / fade out at random-feeling timings -->
  <g>
    <circle cx="95" cy="115" r="1" fill="#3B82F6" opacity="0">
      <animate attributeName="opacity" values="0;0.35;0" dur="6.2s" begin="0.3s" repeatCount="indefinite"/>
    </circle>
    <circle cx="410" cy="200" r="1" fill="#60A5FA" opacity="0">
      <animate attributeName="opacity" values="0;0.3;0" dur="7.5s" begin="2.1s" repeatCount="indefinite"/>
    </circle>
    <circle cx="640" cy="45" r="1" fill="#3B82F6" opacity="0">
      <animate attributeName="opacity" values="0;0.3;0" dur="5.8s" begin="1.4s" repeatCount="indefinite"/>
    </circle>
    <circle cx="980" cy="190" r="1" fill="#60A5FA" opacity="0">
      <animate attributeName="opacity" values="0;0.35;0" dur="6.9s" begin="3.3s" repeatCount="indefinite"/>
    </circle>
    <circle cx="1180" cy="30" r="1" fill="#3B82F6" opacity="0">
      <animate attributeName="opacity" values="0;0.3;0" dur="8.1s" begin="0.8s" repeatCount="indefinite"/>
    </circle>
    <circle cx="1390" cy="185" r="1" fill="#60A5FA" opacity="0">
      <animate attributeName="opacity" values="0;0.3;0" dur="7.1s" begin="2.7s" repeatCount="indefinite"/>
    </circle>
    <circle cx="60" cy="205" r="1" fill="#3B82F6" opacity="0">
      <animate attributeName="opacity" values="0;0.3;0" dur="6.6s" begin="4.2s" repeatCount="indefinite"/>
    </circle>
    <circle cx="1520" cy="100" r="1" fill="#60A5FA" opacity="0">
      <animate attributeName="opacity" values="0;0.35;0" dur="7.8s" begin="1.9s" repeatCount="indefinite"/>
    </circle>
  </g>

  <text x="800" y="118" text-anchor="middle" font-family="'Segoe UI', Inter, sans-serif" font-size="34" font-weight="700" fill="#111111">
    Thanks for Visiting!
  </text>
  <text x="800" y="150" text-anchor="middle" font-family="monospace" font-size="15" letter-spacing="1" fill="#111111">
    github.com/<tspan fill="#3B82F6" font-weight="bold">Vikki-2006</tspan>
  </text>
  <text x="800" y="172" text-anchor="middle" font-family="monospace" font-size="9" fill="#111111" opacity="0.35">
    SEC — FOOTER / EOF
  </text>
  <path d="M690 95 L690 80 L710 80" stroke="#111111" stroke-width="1" opacity="0.5"/>
  <path d="M910 95 L910 80 L890 80" stroke="#111111" stroke-width="1" opacity="0.5"/>

  <!-- ============================================================ -->
  <!-- ANIMATED ZONE: only the blue wave lines gently breathe here -->
  <!-- ============================================================ -->
  <g clip-path="url(#waveClip)">

    <!-- Wave 1: fastest layer, period 400, amplitude 10 -->
    <g>
      <animateTransform attributeName="transform" type="translate"
        values="0,0; 0,-2.4; 0,0; 0,2.4; 0,0" keyTimes="0;0.25;0.5;0.75;1"
        calcMode="spline" keySplines="0.42 0 0.58 1;0.42 0 0.58 1;0.42 0 0.58 1;0.42 0 0.58 1"
        dur="6s" repeatCount="indefinite"/>
      <path d="M -400.00,232.00 C -344.80,232.00 -355.20,222.00 -300.00,222.00 C -244.80,222.00 -255.20,232.00 -200.00,232.00 C -144.80,232.00 -155.20,242.00 -100.00,242.00 C -44.80,242.00 -55.20,232.00 0.00,232.00 C 55.20,232.00 44.80,222.00 100.00,222.00 C 155.20,222.00 144.80,232.00 200.00,232.00 C 255.20,232.00 244.80,242.00 300.00,242.00 C 355.20,242.00 344.80,232.00 400.00,232.00 C 455.20,232.00 444.80,222.00 500.00,222.00 C 555.20,222.00 544.80,232.00 600.00,232.00 C 655.20,232.00 644.80,242.00 700.00,242.00 C 755.20,242.00 744.80,232.00 800.00,232.00 C 855.20,232.00 844.80,222.00 900.00,222.00 C 955.20,222.00 944.80,232.00 1000.00,232.00 C 1055.20,232.00 1044.80,242.00 1100.00,242.00 C 1155.20,242.00 1144.80,232.00 1200.00,232.00 C 1255.20,232.00 1244.80,222.00 1300.00,222.00 C 1355.20,222.00 1344.80,232.00 1400.00,232.00 C 1455.20,232.00 1444.80,242.00 1500.00,242.00 C 1555.20,242.00 1544.80,232.00 1600.00,232.00 C 1655.20,232.00 1644.80,222.00 1700.00,222.00 C 1755.20,222.00 1744.80,232.00 1800.00,232.00 C 1855.20,232.00 1844.80,242.00 1900.00,242.00 C 1955.20,242.00 1944.80,232.00 2000.00,232.00"
            stroke="#3B82F6" stroke-width="1.6" opacity="0.85">
        <animateTransform attributeName="transform" type="translate"
          values="0,0; -400,0" calcMode="linear" dur="8s" repeatCount="indefinite"/>
      </path>
    </g>

    <!-- Wave 2: mid layer, period 500, amplitude 8 -->
    <g>
      <animateTransform attributeName="transform" type="translate"
        values="0,0; 0,-2; 0,0; 0,2; 0,0" keyTimes="0;0.25;0.5;0.75;1"
        calcMode="spline" keySplines="0.42 0 0.58 1;0.42 0 0.58 1;0.42 0 0.58 1;0.42 0 0.58 1"
        dur="7s" begin="0.5s" repeatCount="indefinite"/>
      <path d="M -500.00,246.00 C -431.00,246.00 -444.00,238.00 -375.00,238.00 C -306.00,238.00 -319.00,246.00 -250.00,246.00 C -181.00,246.00 -194.00,254.00 -125.00,254.00 C -56.00,254.00 -69.00,246.00 0.00,246.00 C 69.00,246.00 56.00,238.00 125.00,238.00 C 194.00,238.00 181.00,246.00 250.00,246.00 C 319.00,246.00 306.00,254.00 375.00,254.00 C 444.00,254.00 431.00,246.00 500.00,246.00 C 569.00,246.00 556.00,238.00 625.00,238.00 C 694.00,238.00 681.00,246.00 750.00,246.00 C 819.00,246.00 806.00,254.00 875.00,254.00 C 944.00,254.00 931.00,246.00 1000.00,246.00 C 1069.00,246.00 1056.00,238.00 1125.00,238.00 C 1194.00,238.00 1181.00,246.00 1250.00,246.00 C 1319.00,246.00 1306.00,254.00 1375.00,254.00 C 1444.00,254.00 1431.00,246.00 1500.00,246.00 C 1569.00,246.00 1556.00,238.00 1625.00,238.00 C 1694.00,238.00 1681.00,246.00 1750.00,246.00 C 1819.00,246.00 1806.00,254.00 1875.00,254.00 C 1944.00,254.00 1931.00,246.00 2000.00,246.00 C 2069.00,246.00 2056.00,238.00 2125.00,238.00 C 2194.00,238.00 2181.00,246.00 2250.00,246.00 C 2319.00,246.00 2306.00,254.00 2375.00,254.00 C 2444.00,254.00 2431.00,246.00 2500.00,246.00"
            stroke="#DBEAFE" stroke-width="1.2">
        <animateTransform attributeName="transform" type="translate"
          values="0,0; -500,0" calcMode="linear" dur="12s" repeatCount="indefinite"/>
      </path>
    </g>

    <!-- Wave 3: slowest/back layer, period 640, amplitude 12 -->
    <g>
      <animateTransform attributeName="transform" type="translate"
        values="0,0; 0,-1.6; 0,0; 0,1.6; 0,0" keyTimes="0;0.25;0.5;0.75;1"
        calcMode="spline" keySplines="0.42 0 0.58 1;0.42 0 0.58 1;0.42 0 0.58 1;0.42 0 0.58 1"
        dur="8s" begin="1s" repeatCount="indefinite"/>
      <path d="M -640.00,238.00 C -551.68,238.00 -568.32,226.00 -480.00,226.00 C -391.68,226.00 -408.32,238.00 -320.00,238.00 C -231.68,238.00 -248.32,250.00 -160.00,250.00 C -71.68,250.00 -88.32,238.00 0.00,238.00 C 88.32,238.00 71.68,226.00 160.00,226.00 C 248.32,226.00 231.68,238.00 320.00,238.00 C 408.32,238.00 391.68,250.00 480.00,250.00 C 568.32,250.00 551.68,238.00 640.00,238.00 C 728.32,238.00 711.68,226.00 800.00,226.00 C 888.32,226.00 871.68,238.00 960.00,238.00 C 1048.32,238.00 1031.68,250.00 1120.00,250.00 C 1208.32,250.00 1191.68,238.00 1280.00,238.00 C 1368.32,238.00 1351.68,226.00 1440.00,226.00 C 1528.32,226.00 1511.68,238.00 1600.00,238.00 C 1688.32,238.00 1671.68,250.00 1760.00,250.00 C 1848.32,250.00 1831.68,238.00 1920.00,238.00 C 2008.32,238.00 1991.68,226.00 2080.00,226.00 C 2168.32,226.00 2151.68,238.00 2240.00,238.00 C 2328.32,238.00 2311.68,250.00 2400.00,250.00 C 2488.32,250.00 2471.68,238.00 2560.00,238.00"
            stroke="#111111" stroke-width="0.8" opacity="0.25">
        <animateTransform attributeName="transform" type="translate"
          values="0,0; -640,0" calcMode="linear" dur="16s" repeatCount="indefinite"/>
      </path>
    </g>

    <!-- Blueprint Nodes on waves: static, unchanged positions -->
    <g transform="translate(320,200)">
      <circle cx="0" cy="0" r="2" fill="#3B82F6" opacity="0.7"/>
    </g>
    <g transform="translate(960,214)">
      <circle cx="0" cy="0" r="2" fill="#3B82F6" opacity="0.7"/>
    </g>
    <g transform="translate(1400,222)">
      <circle cx="0" cy="0" r="2" fill="#111111" opacity="0.4"/>
    </g>

  </g>

</svg>
